<svg width="1376" height="1376" viewBox="0 0 1376 1376" fill="none" xmlns="http://www.w3.org/2000/svg">
<g clip-path="url(#clip0)">
<path d="M688.3 1375.73C1067.96 1375.73 1375.73 1067.96 1375.73 688.3C1375.73 308.643 1067.96 0.870117 688.3 0.870117C308.643 0.870117 0.870117 308.643 0.870117 688.3C0.870117 1067.96 308.643 1375.73 688.3 1375.73Z" fill="#00C4B6"/>
<path d="M861.08 728.18C860.72 727.96 860.39 727.77 860 727.57C854.586 724.575 848.627 722.695 842.475 722.041C836.323 721.387 830.102 721.971 824.18 723.76C818.713 725.414 813.625 728.131 809.208 731.753C804.792 735.375 801.132 739.832 798.44 744.87C792.955 753.968 786.504 762.447 779.2 770.16C778.178 770.889 777.227 771.713 776.36 772.62C774.25 774.92 772.02 777.1 770.02 778.9C763.971 784.181 757.366 788.788 750.32 792.64C737.155 800.901 722.458 806.422 707.11 808.87C705.2 809.17 703.29 809.39 700.39 809.72C698.57 809.89 696.74 810.03 695 810.11L688.31 810.33L681.81 810.14C679.93 810.03 678.08 809.89 675.26 809.59C673.33 809.39 671.42 809.17 669.6 808.89C653.871 806.332 638.824 800.61 625.37 792.07C618.795 788.435 612.624 784.115 606.96 779.18C604.66 777.08 602.39 774.9 600.27 772.6C599.445 771.719 598.526 770.931 597.53 770.25C590.447 762.787 584.147 754.618 578.73 745.87C576.043 740.623 572.333 735.968 567.818 732.179C563.302 728.39 558.073 725.544 552.44 723.81C540.72 720.19 527.98 721.54 515.57 728.23C493.84 741.97 487.06 768.76 499.64 790.35C508.385 805.89 518.895 820.369 530.96 833.5C531.615 834.501 532.354 835.444 533.17 836.32C539.42 842.743 546.048 848.787 553.02 854.42C561.312 861.316 570.08 867.618 579.26 873.28C588.508 878.447 598.093 882.988 607.95 886.87C610.8 888.03 613.65 889.13 616.52 890.13L618.65 890.88C622.57 892.23 626.53 893.47 631.42 894.83C635.87 896.07 640.35 897.18 645.55 898.26C649.25 899 652.98 899.64 656.69 900.19C658.98 900.55 661.3 900.83 663.62 901.1L668.74 901.63C671.28 901.883 673.803 902.077 676.31 902.21C678.64 902.35 680.99 902.4 684.61 902.51L689.08 902.6L693.29 902.46C695.64 902.4 697.99 902.35 700.29 902.21C702.83 902.07 705.35 901.85 707.89 901.63L713.09 901.08C715.38 900.8 717.67 900.55 719.89 900.19C723.67 899.64 727.43 899 731.72 898.12C736.25 897.18 740.72 896.07 746.01 894.61C750.01 893.47 754.01 892.23 758.01 890.88C758.07 890.88 760.01 890.18 760.08 890.16C762.99 889.16 765.83 888.03 768.6 886.92C778.723 882.934 788.559 878.257 798.04 872.92C814.513 862.461 829.759 850.184 843.49 836.32C844.282 835.481 844.985 834.563 845.59 833.58C857.653 820.509 868.153 806.079 876.88 790.58C889.59 768.75 882.82 741.96 861.09 728.22L861.08 728.18Z" fill="#410080"/>
<path d="M688.31 252.79C448.16 252.79 252.78 448.15 252.78 688.29C252.78 928.43 448.16 1123.87 688.31 1123.87C928.46 1123.87 1123.87 928.46 1123.87 688.29C1123.87 448.12 928.48 252.79 688.35 252.79H688.31ZM688.35 1019.93C505.48 1019.93 356.7 871.15 356.7 688.29C356.7 505.43 505.44 356.68 688.31 356.68C871.18 356.68 1019.95 505.43 1019.95 688.29C1019.95 871.15 871.17 1019.93 688.31 1019.93" fill="#410080"/>
</g>
<defs>
<clipPath id="clip0">
<rect width="1374.87" height="1374.87" fill="white" transform="translate(0.870117 0.870117)"/>
</clipPath>
</defs>
</svg>
