<svg width="1376" height="1375" viewBox="0 0 1376 1375" fill="none" xmlns="http://www.w3.org/2000/svg">
<g clip-path="url(#clip0)">
<path d="M688.3 1374.86C1067.96 1374.86 1375.73 1067.09 1375.73 687.43C1375.73 307.773 1067.96 0 688.3 0C308.643 0 0.870117 307.773 0.870117 687.43C0.870117 1067.09 308.643 1374.86 688.3 1374.86Z" fill="#FFB400"/>
<path d="M861.08 727.311C860.72 727.091 860.39 726.901 860 726.701C854.586 723.706 848.627 721.826 842.475 721.172C836.323 720.518 830.102 721.102 824.18 722.891C818.713 724.545 813.625 727.261 809.208 730.884C804.792 734.506 801.132 738.963 798.44 744.001C792.955 753.098 786.504 761.577 779.2 769.291C778.178 770.02 777.227 770.843 776.36 771.751C774.25 774.051 772.02 776.231 770.02 778.031C763.971 783.312 757.366 787.919 750.32 791.771C737.155 800.032 722.458 805.552 707.11 808.001C705.2 808.301 703.29 808.521 700.39 808.851C698.57 809.021 696.74 809.161 695 809.241L688.31 809.461L681.81 809.271C679.93 809.161 678.08 809.021 675.26 808.721C673.33 808.521 671.42 808.301 669.6 808.021C653.871 805.463 638.824 799.741 625.37 791.201C618.795 787.566 612.624 783.245 606.96 778.311C604.66 776.211 602.39 774.031 600.27 771.731C599.445 770.85 598.526 770.062 597.53 769.381C590.447 761.918 584.147 753.748 578.73 745.001C576.043 739.754 572.333 735.099 567.818 731.31C563.302 727.521 558.073 724.675 552.44 722.941C540.72 719.321 527.98 720.671 515.57 727.361C493.84 741.101 487.06 767.891 499.64 789.481C508.385 805.021 518.895 819.5 530.96 832.631C531.615 833.632 532.354 834.575 533.17 835.451C539.42 841.874 546.048 847.918 553.02 853.551C561.312 860.447 570.08 866.749 579.26 872.411C588.508 877.578 598.093 882.119 607.95 886.001C610.8 887.161 613.65 888.261 616.52 889.261L618.65 890.011C622.57 891.361 626.53 892.601 631.42 893.961C635.87 895.201 640.35 896.311 645.55 897.391C649.25 898.131 652.98 898.771 656.69 899.321C658.98 899.681 661.3 899.961 663.62 900.231L668.74 900.761C671.28 901.014 673.803 901.207 676.31 901.341C678.64 901.481 680.99 901.531 684.61 901.641L689.08 901.731L693.29 901.591C695.64 901.531 697.99 901.481 700.29 901.341C702.83 901.201 705.35 900.981 707.89 900.761L713.09 900.211C715.38 899.931 717.67 899.681 719.89 899.321C723.67 898.771 727.43 898.131 731.72 897.251C736.25 896.311 740.72 895.201 746.01 893.741C750.01 892.601 754.01 891.361 758.01 890.011C758.07 890.011 760.01 889.311 760.08 889.291C762.99 888.291 765.83 887.161 768.6 886.051C778.723 882.065 788.559 877.388 798.04 872.051C814.513 861.592 829.759 849.315 843.49 835.451C844.282 834.612 844.985 833.694 845.59 832.711C857.653 819.64 868.153 805.21 876.88 789.711C889.59 767.881 882.82 741.091 861.09 727.351L861.08 727.311Z" fill="#410080"/>
<path d="M688.31 251.92C448.16 251.92 252.78 447.28 252.78 687.42C252.78 927.56 448.16 1123 688.31 1123C928.46 1123 1123.87 927.59 1123.87 687.42C1123.87 447.25 928.48 251.92 688.35 251.92H688.31ZM688.35 1019.06C505.48 1019.06 356.7 870.28 356.7 687.42C356.7 504.56 505.44 355.81 688.31 355.81C871.18 355.81 1019.95 504.56 1019.95 687.42C1019.95 870.28 871.17 1019.06 688.31 1019.06" fill="#410080"/>
</g>
<defs>
<clipPath id="clip0">
<rect width="1374.87" height="1374.87" fill="white" transform="translate(0.870117)"/>
</clipPath>
</defs>
</svg>
