<svg width="1376" height="1376" viewBox="0 0 1376 1376" fill="none" xmlns="http://www.w3.org/2000/svg">
<g clip-path="url(#clip0)">
<path d="M688.3 1375.6C1067.96 1375.6 1375.73 1067.83 1375.73 688.17C1375.73 308.513 1067.96 0.740234 688.3 0.740234C308.643 0.740234 0.870117 308.513 0.870117 688.17C0.870117 1067.83 308.643 1375.6 688.3 1375.6Z" fill="#410080"/>
<path d="M861.08 728.05C860.72 727.83 860.39 727.64 860 727.44C854.586 724.446 848.627 722.566 842.475 721.911C836.323 721.257 830.102 721.841 824.18 723.63C818.713 725.285 813.625 728.001 809.208 731.623C804.792 735.245 801.132 739.702 798.44 744.74C792.955 753.838 786.504 762.317 779.2 770.03C778.178 770.759 777.227 771.583 776.36 772.49C774.25 774.79 772.02 776.97 770.02 778.77C763.971 784.051 757.366 788.659 750.32 792.51C737.155 800.772 722.458 806.292 707.11 808.74C705.2 809.04 703.29 809.26 700.39 809.59C698.57 809.76 696.74 809.9 695 809.98L688.31 810.2L681.81 810.01C679.93 809.9 678.08 809.76 675.26 809.46C673.33 809.26 671.42 809.04 669.6 808.76C653.871 806.202 638.824 800.48 625.37 791.94C618.795 788.306 612.624 783.985 606.96 779.05C604.66 776.95 602.39 774.77 600.27 772.47C599.445 771.589 598.526 770.801 597.53 770.12C590.447 762.657 584.147 754.488 578.73 745.74C576.043 740.493 572.333 735.838 567.818 732.049C563.302 728.26 558.073 725.414 552.44 723.68C540.72 720.06 527.98 721.41 515.57 728.1C493.84 741.84 487.06 768.63 499.64 790.22C508.385 805.76 518.895 820.239 530.96 833.37C531.615 834.371 532.354 835.314 533.17 836.19C539.42 842.613 546.048 848.658 553.02 854.29C561.312 861.186 570.08 867.489 579.26 873.15C588.508 878.318 598.093 882.858 607.95 886.74C610.8 887.9 613.65 889 616.52 890L618.65 890.75C622.57 892.1 626.53 893.34 631.42 894.7C635.87 895.94 640.35 897.05 645.55 898.13C649.25 898.87 652.98 899.51 656.69 900.06C658.98 900.42 661.3 900.7 663.62 900.97L668.74 901.5C671.28 901.753 673.803 901.947 676.31 902.08C678.64 902.22 680.99 902.27 684.61 902.38L689.08 902.47L693.29 902.33C695.64 902.27 697.99 902.22 700.29 902.08C702.83 901.94 705.35 901.72 707.89 901.5L713.09 900.95C715.38 900.67 717.67 900.42 719.89 900.06C723.67 899.51 727.43 898.87 731.72 897.99C736.25 897.05 740.72 895.94 746.01 894.48C750.01 893.34 754.01 892.1 758.01 890.75C758.07 890.75 760.01 890.05 760.08 890.03C762.99 889.03 765.83 887.9 768.6 886.79C778.723 882.805 788.559 878.127 798.04 872.79C814.513 862.331 829.759 850.054 843.49 836.19C844.282 835.351 844.985 834.433 845.59 833.45C857.653 820.379 868.153 805.949 876.88 790.45C889.59 768.62 882.82 741.83 861.09 728.09L861.08 728.05Z" fill="white"/>
<path d="M688.31 252.66C448.16 252.66 252.78 448.02 252.78 688.16C252.78 928.3 448.16 1123.74 688.31 1123.74C928.46 1123.74 1123.87 928.33 1123.87 688.16C1123.87 447.99 928.48 252.66 688.35 252.66H688.31ZM688.35 1019.8C505.48 1019.8 356.7 871.02 356.7 688.16C356.7 505.3 505.44 356.55 688.31 356.55C871.18 356.55 1019.95 505.3 1019.95 688.16C1019.95 871.02 871.17 1019.8 688.31 1019.8" fill="white"/>
</g>
<defs>
<clipPath id="clip0">
<rect width="1374.87" height="1374.87" fill="white" transform="translate(0.870117 0.740234)"/>
</clipPath>
</defs>
</svg>
