<svg width="1375" height="1376" viewBox="0 0 1375 1376" fill="none" xmlns="http://www.w3.org/2000/svg">
<g clip-path="url(#clip0)">
<path d="M687.43 1375.6C1067.09 1375.6 1374.86 1067.83 1374.86 688.17C1374.86 308.513 1067.09 0.740234 687.43 0.740234C307.773 0.740234 0 308.513 0 688.17C0 1067.83 307.773 1375.6 687.43 1375.6Z" fill="#410080"/>
<path d="M693.63 245.811C449.71 245.811 251.26 444.251 251.26 688.171C251.26 932.091 449.71 1130.54 693.63 1130.54C937.55 1130.54 1136 932.091 1136 688.171C1136 444.251 937.55 245.811 693.63 245.811ZM693.63 1056.15C490.73 1056.15 325.63 891.081 325.63 688.151C325.63 485.221 490.71 320.151 693.63 320.151C896.55 320.151 1061.63 485.221 1061.63 688.151C1061.63 891.081 896.53 1056.15 693.63 1056.15Z" fill="white"/>
<path d="M743 652.15L711.4 638.62C707.21 636.76 703.16 635.11 699.28 633.53C689.46 629.53 680.98 626.09 675.11 620.95C669.31 616.12 666.83 611.1 666.83 604.16C666.83 594.74 673.17 587.96 675.94 585.45C682.18 579.69 693.18 576.52 706.94 576.52C726.5 576.52 745.69 584.87 763.99 601.34C764.736 602.006 765.618 602.502 766.574 602.794C767.531 603.085 768.539 603.166 769.53 603.03C770.52 602.892 771.467 602.539 772.305 601.995C773.143 601.45 773.852 600.728 774.38 599.88L812.27 539.37C813.149 537.971 813.491 536.3 813.234 534.668C812.976 533.035 812.137 531.551 810.87 530.49C778.96 503.73 746.87 495.63 727.36 493.31V442.43C727.36 441.531 727.183 440.64 726.839 439.809C726.494 438.978 725.99 438.222 725.354 437.586C724.718 436.95 723.962 436.446 723.131 436.102C722.3 435.757 721.41 435.58 720.51 435.58H669.6C667.783 435.58 666.041 436.302 664.756 437.586C663.472 438.871 662.75 440.613 662.75 442.43V493.86C639.84 498.73 618.16 510.19 602.55 525.8C580.79 547.57 568.31 579.8 568.31 614.34C568.31 641.11 576.75 661.77 595.76 681.34C613.7 699.28 634.92 709.25 655.18 717.34L675 725.34C679.56 727.12 683.58 728.63 687.19 730C699.49 734.64 706.27 737.21 712.63 741.57C722.17 748.1 726.63 756.01 726.63 766.46C726.63 776 722.99 783.72 715.48 790.08C707.37 796.97 696.42 800.32 682.03 800.32C664.16 800.32 649.03 795.93 633.03 786.04C620.122 778.027 608.217 768.499 597.57 757.66C596.856 756.945 595.992 756.397 595.041 756.055C594.09 755.713 593.076 755.585 592.069 755.68C591.063 755.776 590.091 756.093 589.221 756.608C588.352 757.123 587.607 757.824 587.04 758.66L545.19 820.86C544.327 822.143 543.923 823.679 544.043 825.22C544.163 826.761 544.8 828.216 545.85 829.35C560.53 845.15 577.78 858.19 598.59 869.2C618.461 879.86 640.308 886.327 662.78 888.2V944C662.779 944.9 662.955 945.791 663.299 946.623C663.642 947.455 664.147 948.21 664.783 948.847C665.42 949.483 666.175 949.988 667.007 950.331C667.839 950.675 668.73 950.851 669.63 950.85H720.52C721.42 950.851 722.311 950.675 723.143 950.331C723.975 949.988 724.73 949.483 725.367 948.847C726.003 948.21 726.507 947.455 726.851 946.623C727.195 945.791 727.371 944.9 727.37 944V885.27C753.57 879.94 777.04 867.27 793.93 849.19C815.19 826.61 826.93 795.02 826.93 760.19C826.93 729.94 817.6 705.63 798.34 685.79C782.93 670.49 763.4 661.16 743 652.15Z" fill="white"/>
</g>
<defs>
<clipPath id="clip0">
<rect width="1374.87" height="1374.87" fill="white" transform="translate(0 0.740234)"/>
</clipPath>
</defs>
</svg>
