<svg width="1375" height="1376" viewBox="0 0 1375 1376" fill="none" xmlns="http://www.w3.org/2000/svg">
<g clip-path="url(#clip0)">
<path d="M687.43 1375.73C1067.09 1375.73 1374.86 1067.96 1374.86 688.3C1374.86 308.643 1067.09 0.870117 687.43 0.870117C307.773 0.870117 0 308.643 0 688.3C0 1067.96 307.773 1375.73 687.43 1375.73Z" fill="#00C4B6"/>
<path d="M693.63 245.94C449.71 245.94 251.26 444.38 251.26 688.3C251.26 932.22 449.71 1130.67 693.63 1130.67C937.55 1130.67 1136 932.22 1136 688.3C1136 444.38 937.55 245.94 693.63 245.94ZM693.63 1056.28C490.73 1056.28 325.63 891.21 325.63 688.28C325.63 485.35 490.71 320.28 693.63 320.28C896.55 320.28 1061.63 485.35 1061.63 688.28C1061.63 891.21 896.53 1056.28 693.63 1056.28Z" fill="#410080"/>
<path d="M743 652.28L711.4 638.75C707.21 636.89 703.16 635.24 699.28 633.66C689.46 629.66 680.98 626.22 675.11 621.08C669.31 616.25 666.83 611.23 666.83 604.29C666.83 594.87 673.17 588.09 675.94 585.58C682.18 579.82 693.18 576.65 706.94 576.65C726.5 576.65 745.69 585 763.99 601.47C764.736 602.136 765.618 602.632 766.574 602.923C767.531 603.215 768.539 603.296 769.53 603.16C770.52 603.022 771.467 602.669 772.305 602.124C773.143 601.58 773.852 600.858 774.38 600.01L812.27 539.5C813.149 538.1 813.491 536.43 813.234 534.798C812.976 533.165 812.137 531.681 810.87 530.62C778.96 503.86 746.87 495.76 727.36 493.44V442.56C727.36 441.66 727.183 440.77 726.839 439.939C726.494 439.107 725.99 438.352 725.354 437.716C724.718 437.08 723.962 436.576 723.131 436.231C722.3 435.887 721.41 435.71 720.51 435.71H669.6C667.783 435.71 666.041 436.432 664.756 437.716C663.472 439.001 662.75 440.743 662.75 442.56V493.99C639.84 498.86 618.16 510.32 602.55 525.93C580.79 547.7 568.31 579.93 568.31 614.47C568.31 641.24 576.75 661.9 595.76 681.47C613.7 699.41 634.92 709.38 655.18 717.47L675 725.47C679.56 727.25 683.58 728.76 687.19 730.13C699.49 734.77 706.27 737.34 712.63 741.7C722.17 748.23 726.63 756.14 726.63 766.59C726.63 776.13 722.99 783.85 715.48 790.21C707.37 797.1 696.42 800.45 682.03 800.45C664.16 800.45 649.03 796.06 633.03 786.17C620.122 778.156 608.217 768.629 597.57 757.79C596.856 757.075 595.992 756.527 595.041 756.185C594.09 755.843 593.076 755.715 592.069 755.81C591.063 755.906 590.091 756.222 589.221 756.738C588.352 757.253 587.607 757.953 587.04 758.79L545.19 820.99C544.327 822.273 543.923 823.809 544.043 825.35C544.163 826.891 544.8 828.346 545.85 829.48C560.53 845.28 577.78 858.32 598.59 869.33C618.461 879.99 640.308 886.457 662.78 888.33V944.13C662.779 945.03 662.955 945.921 663.299 946.753C663.642 947.585 664.147 948.34 664.783 948.977C665.42 949.613 666.175 950.117 667.007 950.461C667.839 950.805 668.73 950.981 669.63 950.98H720.52C721.42 950.981 722.311 950.805 723.143 950.461C723.975 950.117 724.73 949.613 725.367 948.977C726.003 948.34 726.507 947.585 726.851 946.753C727.195 945.921 727.371 945.03 727.37 944.13V885.4C753.57 880.07 777.04 867.4 793.93 849.32C815.19 826.74 826.93 795.15 826.93 760.32C826.93 730.07 817.6 705.76 798.34 685.92C782.93 670.62 763.4 661.29 743 652.28Z" fill="#410080"/>
</g>
<defs>
<clipPath id="clip0">
<rect width="1374.87" height="1374.87" fill="white" transform="translate(0 0.870117)"/>
</clipPath>
</defs>
</svg>
