<svg width="1375" height="1375" viewBox="0 0 1375 1375" fill="none" xmlns="http://www.w3.org/2000/svg">
<g clip-path="url(#clip0)">
<path d="M687.43 1374.86C1067.09 1374.86 1374.86 1067.09 1374.86 687.43C1374.86 307.773 1067.09 0 687.43 0C307.773 0 0 307.773 0 687.43C0 1067.09 307.773 1374.86 687.43 1374.86Z" fill="#FFB400"/>
<path d="M693.63 245.07C449.71 245.07 251.26 443.51 251.26 687.43C251.26 931.35 449.71 1129.8 693.63 1129.8C937.55 1129.8 1136 931.35 1136 687.43C1136 443.51 937.55 245.07 693.63 245.07ZM693.63 1055.41C490.73 1055.41 325.63 890.34 325.63 687.41C325.63 484.48 490.71 319.41 693.63 319.41C896.55 319.41 1061.63 484.48 1061.63 687.41C1061.63 890.34 896.53 1055.41 693.63 1055.41Z" fill="#410080"/>
<path d="M743 651.41L711.4 637.88C707.21 636.02 703.16 634.37 699.28 632.79C689.46 628.79 680.98 625.35 675.11 620.21C669.31 615.38 666.83 610.36 666.83 603.42C666.83 594 673.17 587.22 675.94 584.71C682.18 578.95 693.18 575.78 706.94 575.78C726.5 575.78 745.69 584.13 763.99 600.6C764.736 601.266 765.618 601.762 766.574 602.053C767.531 602.345 768.539 602.426 769.53 602.29C770.52 602.152 771.467 601.799 772.305 601.254C773.143 600.71 773.852 599.988 774.38 599.14L812.27 538.63C813.149 537.23 813.491 535.56 813.234 533.928C812.976 532.295 812.137 530.811 810.87 529.75C778.96 502.99 746.87 494.89 727.36 492.57V441.69C727.36 440.79 727.183 439.9 726.839 439.068C726.494 438.237 725.99 437.482 725.354 436.846C724.718 436.21 723.962 435.706 723.131 435.361C722.3 435.017 721.41 434.84 720.51 434.84H669.6C667.783 434.84 666.041 435.562 664.756 436.846C663.472 438.131 662.75 439.873 662.75 441.69V493.12C639.84 497.99 618.16 509.45 602.55 525.06C580.79 546.83 568.31 579.06 568.31 613.6C568.31 640.37 576.75 661.03 595.76 680.6C613.7 698.54 634.92 708.51 655.18 716.6L675 724.6C679.56 726.38 683.58 727.89 687.19 729.26C699.49 733.9 706.27 736.47 712.63 740.83C722.17 747.36 726.63 755.27 726.63 765.72C726.63 775.26 722.99 782.98 715.48 789.34C707.37 796.23 696.42 799.58 682.03 799.58C664.16 799.58 649.03 795.19 633.03 785.3C620.122 777.286 608.217 767.759 597.57 756.92C596.856 756.205 595.992 755.657 595.041 755.315C594.09 754.973 593.076 754.845 592.069 754.94C591.063 755.036 590.091 755.352 589.221 755.867C588.352 756.383 587.607 757.083 587.04 757.92L545.19 820.12C544.327 821.402 543.923 822.939 544.043 824.48C544.163 826.021 544.8 827.476 545.85 828.61C560.53 844.41 577.78 857.45 598.59 868.46C618.461 879.12 640.308 885.587 662.78 887.46V943.26C662.779 944.16 662.955 945.051 663.299 945.883C663.642 946.714 664.147 947.47 664.783 948.106C665.42 948.743 666.175 949.247 667.007 949.591C667.839 949.935 668.73 950.111 669.63 950.11H720.52C721.42 950.111 722.311 949.935 723.143 949.591C723.975 949.247 724.73 948.743 725.367 948.106C726.003 947.47 726.507 946.714 726.851 945.883C727.195 945.051 727.371 944.16 727.37 943.26V884.53C753.57 879.2 777.04 866.53 793.93 848.45C815.19 825.87 826.93 794.28 826.93 759.45C826.93 729.2 817.6 704.89 798.34 685.05C782.93 669.75 763.4 660.42 743 651.41Z" fill="#410080"/>
</g>
<defs>
<clipPath id="clip0">
<rect width="1374.87" height="1374.87" fill="white"/>
</clipPath>
</defs>
</svg>
