<svg id="Capa_1" data-name="Capa 1" xmlns="http://www.w3.org/2000/svg" viewBox="0 0 1374.87 1374.87"><defs><style>.cls-1{fill:#410080;}.cls-2{fill:#fff;}</style></defs><circle class="cls-1" cx="687.43" cy="687.43" r="687.43"/><path class="cls-2" d="M860.21,727.31c-.36-.22-.69-.41-1.08-.61a46.33,46.33,0,0,0-35.82-3.81A43.46,43.46,0,0,0,797.57,744a147.65,147.65,0,0,1-19.24,25.29,20,20,0,0,0-2.84,2.46c-2.11,2.3-4.34,4.48-6.34,6.28a110.64,110.64,0,0,1-19.7,13.74A115.53,115.53,0,0,1,706.24,808c-1.91.3-3.82.52-6.72.85-1.82.17-3.65.31-5.39.39l-6.69.22-6.5-.19c-1.88-.11-3.73-.25-6.55-.55-1.93-.2-3.84-.42-5.66-.7A117.82,117.82,0,0,1,624.5,791.2a106.37,106.37,0,0,1-18.41-12.89c-2.3-2.1-4.57-4.28-6.69-6.58a16.53,16.53,0,0,0-2.74-2.35A150.58,150.58,0,0,1,577.86,745a44.12,44.12,0,0,0-26.29-22.06c-11.72-3.62-24.46-2.27-36.87,4.42-21.73,13.74-28.51,40.53-15.93,62.12a231.79,231.79,0,0,0,31.32,43.15,21.08,21.08,0,0,0,2.21,2.82,224.93,224.93,0,0,0,19.85,18.1,229.21,229.21,0,0,0,26.24,18.86A236.49,236.49,0,0,0,607.08,886c2.85,1.16,5.7,2.26,8.57,3.26l2.13.75c3.92,1.35,7.88,2.59,12.77,3.95,4.45,1.24,8.93,2.35,14.13,3.43,3.7.74,7.43,1.38,11.14,1.93,2.29.36,4.61.64,6.93.91l5.12.53q3.81.38,7.57.58c2.33.14,4.68.19,8.3.3l4.47.09,4.21-.14c2.35-.06,4.7-.11,7-.25,2.54-.14,5.06-.36,7.6-.58l5.2-.55c2.29-.28,4.58-.53,6.8-.89,3.78-.55,7.54-1.19,11.83-2.07,4.53-.94,9-2.05,14.29-3.51,4-1.14,8-2.38,12-3.73.06,0,2-.7,2.07-.72,2.91-1,5.75-2.13,8.52-3.24a237,237,0,0,0,29.44-14,260.42,260.42,0,0,0,45.45-36.6,16.88,16.88,0,0,0,2.1-2.74,229.22,229.22,0,0,0,31.29-43c12.71-21.83,5.94-48.62-15.79-62.36M753.4,872.94"/><path class="cls-2" d="M687.44,251.92c-240.15,0-435.53,195.36-435.53,435.5S447.29,1123,687.44,1123,1123,927.59,1123,687.42s-195.39-435.5-435.52-435.5m0,767.14c-182.87,0-331.65-148.78-331.65-331.64S504.57,355.81,687.44,355.81s331.64,148.75,331.64,331.61S870.3,1019.06,687.44,1019.06"/></svg>