<svg width="1376" height="1376" viewBox="0 0 1376 1376" fill="none" xmlns="http://www.w3.org/2000/svg">
<g clip-path="url(#clip0)">
<path d="M688.17 1375.73C1067.83 1375.73 1375.6 1067.96 1375.6 688.3C1375.6 308.643 1067.83 0.870117 688.17 0.870117C308.513 0.870117 0.740234 308.643 0.740234 688.3C0.740234 1067.96 308.513 1375.73 688.17 1375.73Z" fill="#00C4B6"/>
<path d="M991.45 894.87H384.9C361.715 894.841 339.488 885.616 323.096 869.22C306.703 852.824 297.484 830.595 297.46 807.41V536.67C297.484 513.485 306.703 491.256 323.096 474.86C339.488 458.464 361.715 449.239 384.9 449.21H991.45C1014.63 449.242 1036.86 458.467 1053.25 474.863C1069.64 491.258 1078.86 513.486 1078.89 536.67V807.36C1078.88 830.553 1069.66 852.793 1053.27 869.2C1036.88 885.606 1014.64 894.838 991.45 894.87ZM384.9 500.37C375.279 500.383 366.055 504.213 359.254 511.018C352.452 517.823 348.628 527.048 348.62 536.67V807.36C348.628 816.981 352.452 826.207 359.254 833.012C366.055 839.817 375.279 843.647 384.9 843.66H991.45C1001.07 843.644 1010.29 839.814 1017.09 833.009C1023.89 826.204 1027.72 816.981 1027.73 807.36V536.67C1027.72 527.049 1023.89 517.825 1017.09 511.021C1010.29 504.216 1001.07 500.386 991.45 500.37H384.9Z" fill="#410080"/>
<path d="M934.96 1086.16H441.38C415.131 1086.14 389.964 1075.7 371.403 1057.14C352.842 1038.58 342.404 1013.41 342.38 987.16V942.87C342.38 936.086 345.075 929.579 349.872 924.782C354.669 919.985 361.176 917.29 367.96 917.29C374.744 917.29 381.25 919.985 386.048 924.782C390.845 929.579 393.54 936.086 393.54 942.87V987.22C393.553 999.896 398.594 1012.05 407.558 1021.01C416.521 1029.98 428.674 1035.02 441.35 1035.03H934.96C947.636 1035.01 959.786 1029.96 968.743 1020.99C977.701 1012.02 982.735 999.866 982.74 987.19V942.87C982.74 936.086 985.435 929.579 990.232 924.782C995.029 919.985 1001.54 917.29 1008.32 917.29C1015.1 917.29 1021.61 919.985 1026.41 924.782C1031.2 929.579 1033.9 936.086 1033.9 942.87V987.22C1033.86 1013.45 1023.42 1038.59 1004.88 1057.14C986.331 1075.68 961.188 1086.12 934.96 1086.16Z" fill="#410080"/>
<path d="M697.74 500.221H619.74C536.05 500.221 470.94 475.221 445.54 433.431C429.86 407.601 429.94 376.591 445.79 346.111C465.32 308.531 496.79 288.741 533.92 290.571C603.74 293.871 677.74 371.121 714.45 449.051H775.03C781.814 449.051 788.321 451.746 793.118 456.543C797.915 461.34 800.61 467.846 800.61 474.631C800.61 481.415 797.915 487.921 793.118 492.718C788.321 497.516 781.814 500.211 775.03 500.211H697.74V500.221ZM529.16 341.611C518.5 341.611 503.86 345.361 491.21 369.691C481.09 389.171 485.27 400.241 489.3 406.871C502.05 427.871 547.3 449.051 619.77 449.051H656.77C623.02 390.491 570.06 343.481 531.49 341.661C530.74 341.621 529.97 341.611 529.16 341.611Z" fill="#410080"/>
<path d="M678.59 500.22H601.32C594.536 500.22 588.03 497.525 583.232 492.728C578.435 487.931 575.74 481.424 575.74 474.64C575.74 467.856 578.435 461.349 583.232 456.552C588.03 451.755 594.536 449.06 601.32 449.06H661.9C698.63 371.12 772.58 293.87 842.4 290.56C880 288.91 911.01 308.56 930.53 346.1C946.38 376.58 946.46 407.59 930.78 433.42C905.38 475.24 840.27 500.21 756.58 500.21H678.58L678.59 500.22ZM719.59 449.05H756.59C829.02 449.05 874.31 427.86 887.06 406.87C891.06 400.24 895.27 389.17 885.15 369.69C871.54 343.51 855.66 341.11 844.83 341.69C806.25 343.48 753.3 390.49 719.55 449.05H719.59Z" fill="#410080"/>
<path d="M688.17 1086.16C684.811 1086.16 681.484 1085.5 678.381 1084.21C675.277 1082.93 672.457 1081.04 670.082 1078.67C667.707 1076.29 665.823 1073.47 664.537 1070.37C663.252 1067.27 662.59 1063.94 662.59 1060.58V869.24C662.59 862.456 665.285 855.95 670.082 851.152C674.879 846.355 681.386 843.66 688.17 843.66C694.954 843.66 701.46 846.355 706.258 851.152C711.055 855.95 713.75 862.456 713.75 869.24V1060.58C713.75 1067.36 711.055 1073.87 706.258 1078.67C701.46 1083.47 694.954 1086.16 688.17 1086.16Z" fill="#410080"/>
<path d="M493.26 689.1L531.98 592.2H577.04L508.92 751.72H476.74L409.74 592.2H454.74L493.26 689.1Z" fill="#410080"/>
<path d="M608.99 723.99L597.99 751.72H553.99L615.34 592.2H660.61L720.74 751.72H676.48L666.11 723.99H608.99ZM637.99 641.51H637.58L620.42 692.27H654.89L637.99 641.51Z" fill="#410080"/>
<path d="M775.08 716.6H824.79V751.72H733.62V592.2H775.08V716.6Z" fill="#410080"/>
<path d="M879.811 627.32V653.97H926.561V689.1H879.811V716.6H929.101V751.72H838.351V592.2H929.101V627.32H879.811Z" fill="#410080"/>
</g>
<defs>
<clipPath id="clip0">
<rect width="1374.87" height="1374.87" fill="white" transform="translate(0.740234 0.870117)"/>
</clipPath>
</defs>
</svg>
