<svg width="1376" height="1376" viewBox="0 0 1376 1376" fill="none" xmlns="http://www.w3.org/2000/svg">
<g clip-path="url(#clip0)">
<path d="M688.17 1375.6C1067.83 1375.6 1375.6 1067.83 1375.6 688.17C1375.6 308.513 1067.83 0.740234 688.17 0.740234C308.513 0.740234 0.740234 308.513 0.740234 688.17C0.740234 1067.83 308.513 1375.6 688.17 1375.6Z" fill="#410080"/>
<path d="M991.45 894.74H384.9C361.715 894.711 339.488 885.486 323.096 869.09C306.703 852.694 297.484 830.465 297.46 807.28V536.54C297.484 513.355 306.703 491.126 323.096 474.73C339.488 458.334 361.715 449.109 384.9 449.08H991.45C1014.63 449.112 1036.86 458.337 1053.25 474.733C1069.64 491.128 1078.86 513.356 1078.89 536.54V807.23C1078.88 830.423 1069.66 852.663 1053.27 869.07C1036.88 885.476 1014.64 894.708 991.45 894.74ZM384.9 500.24C375.279 500.253 366.055 504.083 359.254 510.888C352.452 517.693 348.628 526.919 348.62 536.54V807.23C348.628 816.852 352.452 826.077 359.254 832.882C366.055 839.688 375.279 843.517 384.9 843.53H991.45C1001.07 843.514 1010.29 839.684 1017.09 832.879C1023.89 826.075 1027.72 816.851 1027.73 807.23V536.54C1027.72 526.919 1023.89 517.696 1017.09 510.891C1010.29 504.086 1001.07 500.256 991.45 500.24H384.9Z" fill="white"/>
<path d="M934.96 1086.03H441.38C415.131 1086.01 389.964 1075.57 371.403 1057.01C352.842 1038.45 342.404 1013.28 342.38 987.03V942.74C342.38 935.956 345.075 929.45 349.872 924.652C354.669 919.855 361.176 917.16 367.96 917.16C374.744 917.16 381.25 919.855 386.048 924.652C390.845 929.45 393.54 935.956 393.54 942.74V987.09C393.553 999.766 398.594 1011.92 407.558 1020.88C416.521 1029.85 428.674 1034.89 441.35 1034.9H934.96C947.636 1034.88 959.786 1029.83 968.743 1020.86C977.701 1011.89 982.735 999.736 982.74 987.06V942.74C982.74 935.956 985.435 929.45 990.232 924.652C995.029 919.855 1001.54 917.16 1008.32 917.16C1015.1 917.16 1021.61 919.855 1026.41 924.652C1031.2 929.45 1033.9 935.956 1033.9 942.74V987.09C1033.86 1013.32 1023.42 1038.46 1004.88 1057.01C986.331 1075.55 961.188 1085.99 934.96 1086.03Z" fill="white"/>
<path d="M697.74 500.091H619.74C536.05 500.091 470.94 475.091 445.54 433.301C429.86 407.471 429.94 376.461 445.79 345.981C465.32 308.401 496.79 288.611 533.92 290.441C603.74 293.741 677.74 370.991 714.45 448.921H775.03C781.814 448.921 788.321 451.616 793.118 456.413C797.915 461.21 800.61 467.716 800.61 474.501C800.61 481.285 797.915 487.791 793.118 492.588C788.321 497.386 781.814 500.081 775.03 500.081H697.74V500.091ZM529.16 341.481C518.5 341.481 503.86 345.231 491.21 369.561C481.09 389.041 485.27 400.111 489.3 406.741C502.05 427.741 547.3 448.921 619.77 448.921H656.77C623.02 390.361 570.06 343.351 531.49 341.531C530.74 341.491 529.97 341.481 529.16 341.481Z" fill="white"/>
<path d="M678.59 500.09H601.32C594.536 500.09 588.03 497.395 583.232 492.598C578.435 487.801 575.74 481.294 575.74 474.51C575.74 467.726 578.435 461.219 583.232 456.422C588.03 451.625 594.536 448.93 601.32 448.93H661.9C698.63 370.99 772.58 293.74 842.4 290.43C880 288.78 911.01 308.43 930.53 345.97C946.38 376.45 946.46 407.46 930.78 433.29C905.38 475.11 840.27 500.08 756.58 500.08H678.58L678.59 500.09ZM719.59 448.92H756.59C829.02 448.92 874.31 427.73 887.06 406.74C891.06 400.11 895.27 389.04 885.15 369.56C871.54 343.38 855.66 340.98 844.83 341.56C806.25 343.35 753.3 390.36 719.55 448.92H719.59Z" fill="white"/>
<path d="M688.17 1086.03C684.811 1086.03 681.484 1085.37 678.381 1084.08C675.277 1082.8 672.457 1080.91 670.082 1078.54C667.707 1076.16 665.823 1073.34 664.537 1070.24C663.252 1067.14 662.59 1063.81 662.59 1060.45V869.11C662.59 862.326 665.285 855.82 670.082 851.023C674.879 846.225 681.386 843.53 688.17 843.53C694.954 843.53 701.46 846.225 706.258 851.023C711.055 855.82 713.75 862.326 713.75 869.11V1060.45C713.75 1067.23 711.055 1073.74 706.258 1078.54C701.46 1083.34 694.954 1086.03 688.17 1086.03Z" fill="white"/>
<path d="M493.26 688.97L531.98 592.07H577.04L508.92 751.59H476.74L409.74 592.07H454.74L493.26 688.97Z" fill="white"/>
<path d="M608.99 723.86L597.99 751.59H553.99L615.34 592.07H660.61L720.74 751.59H676.48L666.11 723.86H608.99ZM637.99 641.38H637.58L620.42 692.14H654.89L637.99 641.38Z" fill="white"/>
<path d="M775.08 716.47H824.79V751.59H733.62V592.07H775.08V716.47Z" fill="white"/>
<path d="M879.811 627.19V653.84H926.561V688.97H879.811V716.47H929.101V751.59H838.351V592.07H929.101V627.19H879.811Z" fill="white"/>
</g>
<defs>
<clipPath id="clip0">
<rect width="1374.87" height="1374.87" fill="white" transform="translate(0.740234 0.740234)"/>
</clipPath>
</defs>
</svg>
