<svg width="1376" height="1375" viewBox="0 0 1376 1375" fill="none" xmlns="http://www.w3.org/2000/svg">
<g clip-path="url(#clip0)">
<path d="M688.17 1374.86C1067.83 1374.86 1375.6 1067.09 1375.6 687.43C1375.6 307.773 1067.83 0 688.17 0C308.513 0 0.740234 307.773 0.740234 687.43C0.740234 1067.09 308.513 1374.86 688.17 1374.86Z" fill="#FFB400"/>
<path d="M991.45 894H384.9C361.715 893.971 339.488 884.746 323.096 868.35C306.703 851.954 297.484 829.725 297.46 806.54V535.8C297.484 512.615 306.703 490.386 323.096 473.99C339.488 457.593 361.715 448.369 384.9 448.34H991.45C1014.63 448.372 1036.86 457.597 1053.25 473.993C1069.64 490.388 1078.86 512.616 1078.89 535.8V806.49C1078.88 829.683 1069.66 851.923 1053.27 868.329C1036.88 884.736 1014.64 893.968 991.45 894ZM384.9 499.5C375.279 499.513 366.055 503.342 359.254 510.148C352.452 516.953 348.628 526.178 348.62 535.8V806.49C348.628 816.111 352.452 825.337 359.254 832.142C366.055 838.947 375.279 842.777 384.9 842.79H991.45C1001.07 842.774 1010.29 838.944 1017.09 832.139C1023.89 825.334 1027.72 816.11 1027.73 806.49V535.8C1027.72 526.179 1023.89 516.955 1017.09 510.151C1010.29 503.346 1001.07 499.516 991.45 499.5H384.9Z" fill="#410080"/>
<path d="M934.96 1085.29H441.38C415.131 1085.27 389.964 1074.83 371.403 1056.27C352.842 1037.71 342.404 1012.54 342.38 986.29V942C342.38 935.216 345.075 928.709 349.872 923.912C354.669 919.115 361.176 916.42 367.96 916.42C374.744 916.42 381.25 919.115 386.048 923.912C390.845 928.709 393.54 935.216 393.54 942V986.35C393.553 999.026 398.594 1011.18 407.558 1020.14C416.521 1029.11 428.674 1034.15 441.35 1034.16H934.96C947.636 1034.14 959.786 1029.09 968.743 1020.12C977.701 1011.15 982.735 998.996 982.74 986.32V942C982.74 935.216 985.435 928.709 990.232 923.912C995.029 919.115 1001.54 916.42 1008.32 916.42C1015.1 916.42 1021.61 919.115 1026.41 923.912C1031.2 928.709 1033.9 935.216 1033.9 942V986.35C1033.86 1012.58 1023.42 1037.72 1004.88 1056.27C986.331 1074.81 961.188 1085.25 934.96 1085.29Z" fill="#410080"/>
<path d="M697.74 499.35H619.74C536.05 499.35 470.94 474.35 445.54 432.56C429.86 406.73 429.94 375.72 445.79 345.24C465.32 307.66 496.79 287.87 533.92 289.7C603.74 293 677.74 370.25 714.45 448.18H775.03C781.814 448.18 788.321 450.875 793.118 455.673C797.915 460.47 800.61 466.976 800.61 473.76C800.61 480.545 797.915 487.051 793.118 491.848C788.321 496.645 781.814 499.34 775.03 499.34H697.74V499.35ZM529.16 340.74C518.5 340.74 503.86 344.49 491.21 368.82C481.09 388.3 485.27 399.37 489.3 406C502.05 427 547.3 448.18 619.77 448.18H656.77C623.02 389.62 570.06 342.61 531.49 340.79C530.74 340.75 529.97 340.74 529.16 340.74Z" fill="#410080"/>
<path d="M678.59 499.35H601.32C594.536 499.35 588.03 496.655 583.232 491.858C578.435 487.06 575.74 480.554 575.74 473.77C575.74 466.986 578.435 460.479 583.232 455.682C588.03 450.885 594.536 448.19 601.32 448.19H661.9C698.63 370.25 772.58 293 842.4 289.69C880 288.04 911.01 307.69 930.53 345.23C946.38 375.71 946.46 406.72 930.78 432.55C905.38 474.37 840.27 499.34 756.58 499.34H678.58L678.59 499.35ZM719.59 448.18H756.59C829.02 448.18 874.31 426.99 887.06 406C891.06 399.37 895.27 388.3 885.15 368.82C871.54 342.64 855.66 340.24 844.83 340.82C806.25 342.61 753.3 389.62 719.55 448.18H719.59Z" fill="#410080"/>
<path d="M688.17 1085.29C684.811 1085.29 681.484 1084.63 678.381 1083.34C675.277 1082.06 672.457 1080.17 670.082 1077.8C667.707 1075.42 665.823 1072.6 664.537 1069.5C663.252 1066.4 662.59 1063.07 662.59 1059.71V868.37C662.59 861.586 665.285 855.079 670.082 850.282C674.879 845.485 681.386 842.79 688.17 842.79C694.954 842.79 701.46 845.485 706.258 850.282C711.055 855.079 713.75 861.586 713.75 868.37V1059.71C713.75 1066.49 711.055 1073 706.258 1077.8C701.46 1082.6 694.954 1085.29 688.17 1085.29Z" fill="#410080"/>
<path d="M493.26 688.23L531.98 591.33H577.04L508.92 750.85H476.74L409.74 591.33H454.74L493.26 688.23Z" fill="#410080"/>
<path d="M608.99 723.12L597.99 750.85H553.99L615.34 591.33H660.61L720.74 750.85H676.48L666.11 723.12H608.99ZM637.99 640.64H637.58L620.42 691.4H654.89L637.99 640.64Z" fill="#410080"/>
<path d="M775.08 715.73H824.79V750.85H733.62V591.33H775.08V715.73Z" fill="#410080"/>
<path d="M879.811 626.45V653.1H926.561V688.23H879.811V715.73H929.101V750.85H838.351V591.33H929.101V626.45H879.811Z" fill="#410080"/>
</g>
<defs>
<clipPath id="clip0">
<rect width="1374.87" height="1374.87" fill="white" transform="translate(0.740234)"/>
</clipPath>
</defs>
</svg>
